HIERARCHY
ROOT root
{
	OFFSET	0	13.1	24.9
	CHANNELS 6  Xposition Yposition Zposition Xrotation Yrotation Zrotation
	JOINT spine_1
	{
		OFFSET	0	9.99999	0
		CHANNELS 3  Xrotation Yrotation Zrotation
		JOINT spine_2
		{
			OFFSET	0	112	-10
			CHANNELS 3  Xrotation Yrotation Zrotation
			JOINT spine_3
			{
				OFFSET	0	206.5	19.3
				CHANNELS 3  Xrotation Yrotation Zrotation
				JOINT spine_4
				{
					OFFSET	0	110.4	14.6
					CHANNELS 3  Xrotation Yrotation Zrotation
					JOINT neck_1
					{
						OFFSET	0	71.8	-50.3
						CHANNELS 3  Xrotation Yrotation Zrotation
						JOINT neck_2
						{
							OFFSET	0	86.2	-25.8
							CHANNELS 3  Xrotation Yrotation Zrotation
							JOINT head_ee
							{
								OFFSET	0	179.8	-8.7
								CHANNELS 3  Xrotation Yrotation Zrotation
								End Site
								{
									OFFSET	1	0	0
								}
							}
						}
					}
					JOINT left_clavicle
					{
						OFFSET	-43.2	22.4	-70.8
						CHANNELS 3  Xrotation Yrotation Zrotation
						JOINT left_shoulder
						{
							OFFSET	-93.9	-5.79999	48.7
							CHANNELS 3  Xrotation Yrotation Zrotation
							JOINT left_elbow
							{
								OFFSET	-291.4	-30.8	15.2
								CHANNELS 3  Xrotation Yrotation Zrotation
								JOINT left_lowarm_twist
								{
									OFFSET	-110.7	-3.89999	13.6
									CHANNELS 3  Xrotation Yrotation Zrotation
									JOINT left_hand
									{
										OFFSET	-110.7	-3.89999	13.6
										CHANNELS 3  Xrotation Yrotation Zrotation
										JOINT left_ee
										{
											OFFSET	-80.8	-5.10001	12.1
											CHANNELS 3  Xrotation Yrotation Zrotation
											End Site
											{
												OFFSET	1	0	0
											}
										}
									}
								}
							}
						}
					}
					JOINT right_clavicle
					{
						OFFSET	43.2	22.4	-70.8
						CHANNELS 3  Xrotation Yrotation Zrotation
						JOINT right_shoulder
						{
							OFFSET	93.9	-5.79999	48.7
							CHANNELS 3  Xrotation Yrotation Zrotation
							JOINT right_elbow
							{
								OFFSET	291.4	-30.8	15.2
								CHANNELS 3  Xrotation Yrotation Zrotation
								JOINT right_lowarm_twist
								{
									OFFSET	110.7	-3.89999	13.6
									CHANNELS 3  Xrotation Yrotation Zrotation
									JOINT right_hand
									{
										OFFSET	110.7	-3.89999	13.6
										CHANNELS 3  Xrotation Yrotation Zrotation
										JOINT right_ee
										{
											OFFSET	80.8	-5.10001	12.1
											CHANNELS 3  Xrotation Yrotation Zrotation
											End Site
											{
												OFFSET	1	0	0
											}
										}
									}
								}
							}
						}
					}
				}
			}
		}
	}
	JOINT left_hip
	{
		OFFSET	-82.8	-127.5	0.300001
		CHANNELS 3  Xrotation Yrotation Zrotation
		JOINT left_knee
		{
			OFFSET	-28.2	-396.7	2.2
			CHANNELS 3  Xrotation Yrotation Zrotation
			JOINT left_ankle
			{
				OFFSET	-11.7	-411.3	35.4
				CHANNELS 3  Xrotation Yrotation Zrotation
				JOINT left_toes
				{
					OFFSET	0	-60	-88.6
					CHANNELS 3  Xrotation Yrotation Zrotation
					JOINT left_foot_ee
					{
						OFFSET	-22.5	-16.5	-42.2
						CHANNELS 3  Xrotation Yrotation Zrotation
						End Site
						{
							OFFSET	1	0	0
						}
					}
				}
			}
		}
	}
	JOINT right_hip
	{
		OFFSET	82.8	-127.5	0.300001
		CHANNELS 3  Xrotation Yrotation Zrotation
		JOINT right_knee
		{
			OFFSET	28.2	-396.7	2.2
			CHANNELS 3  Xrotation Yrotation Zrotation
			JOINT right_ankle
			{
				OFFSET	11.7	-411.3	35.4
				CHANNELS 3  Xrotation Yrotation Zrotation
				JOINT right_toes
				{
					OFFSET	0	-60	-88.6
					CHANNELS 3  Xrotation Yrotation Zrotation
					JOINT right_foot_ee
					{
						OFFSET	22.5	-16.5	-42.2
						CHANNELS 3  Xrotation Yrotation Zrotation
						End Site
						{
							OFFSET	1	0	0
						}
					}
				}
			}
		}
	}
}
MOTION
Frames: 13
Frame Time: 0.02
1372.05 701.618 -1475.22 2.3150276531 18.5731842572 -5.0204838636 -1.96503 0.0643465 0.77582 -1.96469 0.0148502 0.778342 -1.96417 -0.175181 0.758518 -1.96497 -0.0531925 0.776664 8.91705 9.12318 -2.48218 9.47253 17.3667 -2.93725 -0.0 0.0 -0.0 5.5204 -13.0491 10.0891 14.5864 -0.729962 57.6285 3.31135 -58.6189 1.85931 -30.3796 -1.99088 3.28768 0.728593 -11.1153 0.191142 -0.0 0.0 -0.0 10.6473 5.34097 -21.2192 -28.7587 14.3333 -63.0634 0.249236 7.03852 -0.0153281 -34.1965 2.35616 -3.61346 0.622506 5.01483 -2.07108 0.0 0.0 0.0 -13.3211 -18.5149 13.7918 -8.07157 0.247218 1.21305 20.7628 3.10041 -2.83152 25.9106 -0.0 -0.0 -0.0 0.0 -0.0 32.3322 6.37572 -0.739219 -13.9207 -0.318515 -2.10732 21.0633 -19.4903 2.93045 -16.7306 0.0 0.0 0.0 0.0 0.0 
1360.62482835 702.571 -1496.10503421 1.75362869104 19.6470291502 -4.1168282617 -1.83363 -0.0392286 0.352175 -1.83357 -0.0615588 0.348965 -1.8339 -0.143965 0.32379 -1.83403 -0.0910224 0.342463 9.54648 8.51564 -1.5148 9.97058 15.4083 -1.81125 -0.0 0.0 -0.0 5.05473 -14.4574 9.00151 11.5067 -1.08831 59.561 3.14876 -57.3234 1.72146 -29.8669 -1.9435 3.2421 0.817416 -9.78048 1.3632 -0.0 0.0 -0.0 10.7542 4.66174 -21.4321 -28.9544 13.9293 -61.2307 0.286968 8.0909 -0.0202956 -33.7686 2.31414 -3.57816 0.732706 4.48339 -3.03776 0.0 0.0 0.0 -13.8873 -17.5194 12.8781 -9.11902 0.266693 1.3726 22.8681 2.40457 -3.08913 26.6691 -0.0 -0.0 -0.0 0.0 -0.0 33.2554 5.51487 -1.26407 -17.4404 -0.317326 -2.64727 19.7062 -17.024 2.73461 -14.1785 0.0 0.0 0.0 0.0 0.0 
1342.74170943 701.401 -1528.42241484 2.01733925141 19.7622990224 -3.7317809015 -1.89387 0.00554373 -0.0396765 -1.89387 0.00805722 -0.0392433 -1.89388 0.0173284 -0.0361203 -1.89388 0.0114064 -0.0384037 10.459 8.21627 -0.535662 10.7939 13.9076 -0.673769 -0.0 0.0 -0.0 4.81811 -16.8385 8.31201 8.17781 -0.765052 61.693 2.99867 -56.0404 1.59604 -30.1765 -1.97206 3.26967 0.561819 -7.34693 0.674959 -0.0 0.0 -0.0 10.6098 4.35358 -21.1121 -30.095 15.1914 -59.678 0.337022 9.47835 -0.0279404 -33.4779 2.28574 -3.55399 0.81996 3.81456 -3.90641 0.0 0.0 0.0 -15.3933 -11.6671 12.0212 -13.0869 0.313937 1.97948 21.6795 -0.608489 -2.9625 28.1339 -0.0 -0.0 -0.0 0.0 -0.0 32.9559 4.73055 -1.45409 -22.4166 -0.25911 -3.40834 19.5633 -13.3191 2.6919 -11.0955 0.0 0.0 0.0 0.0 0.0 
1324.12880379 705.277 -1556.14483412 2.26595457951 20.9446541817 -3.62577808833 -1.88419 -0.182406 -0.323589 -1.88414 -0.161446 -0.33454 -1.88312 -0.0756197 -0.36368 -1.88328 -0.132107 -0.347173 11.2946 7.6518 0.061749 11.5535 12.3322 0.0274954 -0.0 0.0 -0.0 5.34832 -16.7127 9.45945 5.56657 -0.552447 63.466 2.84874 -54.6672 1.47268 -30.9858 -2.04742 3.34102 0.707123 -5.61538 2.38885 -0.0 0.0 -0.0 10.7174 4.75019 -21.3552 -28.7334 14.7376 -58.3962 0.346061 9.72777 -0.0294483 -33.4064 2.27877 -3.54802 0.911948 4.082 -4.41547 0.0 0.0 0.0 -14.2898 -9.60419 11.5799 -19.004 0.306161 2.88689 27.5139 -1.57789 -3.65171 31.1255 -0.0 -0.0 -0.0 0.0 -0.0 31.0345 4.68423 -0.814872 -24.0421 -0.225797 -3.65556 22.3865 -10.8151 3.02914 -8.76568 0.0 0.0 0.0 0.0 0.0 
1314.4051844 710.052 -1581.3453196 2.90187541627 21.106365049 -3.8078880418 -1.86785 -0.0585861 -0.447199 -1.86774 -0.0300112 -0.450021 -1.86739 0.0797519 -0.443913 -1.86767 0.00864395 -0.450937 11.4476 7.59827 0.998479 11.6495 11.3582 1.19172 -0.0 0.0 -0.0 5.74605 -18.0319 10.2126 1.76627 -0.510411 63.64 2.6815 -53.0175 1.33764 -30.35 -1.98813 3.28506 0.575576 -4.57299 1.94068 -0.0 0.0 -0.0 10.8239 4.97513 -21.5915 -28.5511 16.3715 -58.1736 0.404789 11.3388 -0.0401852 -33.3116 2.26954 -3.5401 0.957806 3.93194 -4.78784 0.0 0.0 0.0 -13.6773 -6.17372 10.6755 -22.7215 0.253396 3.45479 28.26 -3.71333 -3.75639 32.8211 -0.0 -0.0 -0.0 0.0 -0.0 29.5082 4.39039 -0.799562 -26.5562 -0.160492 -4.03582 22.6723 -9.03501 3.05857 -6.92293 0.0 0.0 0.0 0.0 0.0 
1316.16077955 710.052 -1582.28027864 2.88394053068 20.1639210833 -3.75699849094 -1.86785 -0.0585861 -0.447199 -1.86774 -0.0300112 -0.450021 -1.86739 0.0797519 -0.443913 -1.86767 0.00864395 -0.450937 11.4476 7.59827 0.998479 11.6495 11.3582 1.19172 -0.0 0.0 -0.0 5.74605 -18.0319 10.2126 1.76627 -0.510411 63.64 2.6815 -53.0175 1.33764 -30.35 -1.98813 3.28506 0.575576 -4.57299 1.94068 -0.0 0.0 -0.0 10.8239 4.97513 -21.5915 -28.5511 16.3715 -58.1736 0.404789 11.3388 -0.0401852 -33.3116 2.26954 -3.5401 0.957806 3.93194 -4.78784 0.0 0.0 0.0 -13.6773 -6.17372 10.6755 -22.7215 0.253396 3.45479 28.26 -3.71333 -3.75639 32.8211 -0.0 -0.0 -0.0 0.0 -0.0 29.5082 4.39039 -0.799562 -26.5562 -0.160492 -4.03582 22.6723 -9.03501 3.05857 -6.92293 0.0 0.0 0.0 0.0 0.0 
1277.9528227 728.602 -1638.32295241 3.13036045202 23.9861570914 -5.18472695186 -2.33444 0.225538 -0.218236 -2.33445 0.238968 -0.203442 -2.33534 0.282218 -0.137284 -2.33528 0.256995 -0.180133 11.5869 6.05707 0.874246 11.7114 8.96395 1.05131 -0.0 0.0 -0.0 6.88396 -16.1941 12.8055 -2.07992 1.10168 66.4285 2.14992 -46.7972 0.930381 -32.134 -2.15607 3.44042 0.675704 -2.34487 3.54737 -0.0 0.0 -0.0 11.119 6.92673 -22.2798 -22.9759 17.748 -56.3695 0.570255 15.7745 -0.0790007 -33.1933 2.25806 -3.5302 0.928475 3.7282 -4.67477 0.0 0.0 0.0 -8.19923 -4.9336 9.77429 -31.3715 -0.0109032 4.75473 36.569 -4.86372 -4.62144 35.1634 -0.0 -0.0 -0.0 0.0 -0.0 24.4113 4.46997 1.42373 -27.0831 -0.144691 -4.11514 21.4038 -6.49848 2.90331 -5.623 0.0 0.0 0.0 0.0 0.0 
1282.02585266 728.602 -1640.60592672 3.09715901001 22.5674728404 -5.10071609077 -2.33444 0.225538 -0.218236 -2.33445 0.238968 -0.203442 -2.33534 0.282218 -0.137284 -2.33528 0.256995 -0.180133 11.5869 6.05707 0.874246 11.7114 8.96395 1.05131 -0.0 0.0 -0.0 6.88396 -16.1941 12.8055 -2.07992 1.10168 66.4285 2.14992 -46.7972 0.930381 -32.134 -2.15607 3.44042 0.675704 -2.34487 3.54737 -0.0 0.0 -0.0 11.119 6.92673 -22.2798 -22.9759 17.748 -56.3695 0.570255 15.7745 -0.0790007 -33.1933 2.25806 -3.5302 0.928475 3.7282 -4.67477 0.0 0.0 0.0 -8.19923 -4.9336 9.77429 -31.3715 -0.0109032 4.75473 36.569 -4.86372 -4.62144 35.1634 -0.0 -0.0 -0.0 0.0 -0.0 24.4113 4.46997 1.42373 -27.0831 -0.144691 -4.11514 21.4038 -6.49848 2.90331 -5.623 0.0 0.0 0.0 0.0 0.0 
1273.34325695 731.588 -1663.6996946 4.12240553325 22.4187627164 -5.85064258501 -2.47288 0.296593 -0.0488803 -2.47293 0.299102 -0.0299081 -2.47314 0.296978 0.0464825 -2.47302 0.300592 -0.00100345 10.4208 5.74528 1.92729 10.4976 7.60485 2.37706 -0.0 0.0 -0.0 7.19931 -15.9764 13.5024 -3.40351 1.36074 66.6157 1.78932 -41.5492 0.678838 -31.7007 -2.11483 3.40316 0.679942 -2.1846 3.64252 -0.0 0.0 -0.0 11.2983 9.17518 -22.7004 -19.5495 19.8518 -56.3553 0.673236 18.4437 -0.109305 -33.1914 2.25787 -3.53003 0.954966 3.77347 -4.83478 0.0 0.0 0.0 -6.05142 -3.13702 9.00027 -37.3525 -0.306984 5.62407 37.5026 -5.39814 -4.71588 35.7943 -0.0 -0.0 -0.0 0.0 -0.0 21.7081 3.19059 2.11863 -27.144 -0.142818 -4.1243 20.0764 -6.21007 2.74051 -5.59414 0.0 0.0 0.0 0.0 0.0 
1266.50954193 734.819 -1684.53329087 5.39668660219 20.9689657746 -6.65077498119 -2.6172 0.186049 0.0385312 -2.61721 0.18322 0.0502919 -2.61706 0.164378 0.0952816 -2.61703 0.177363 0.0681253 7.93159 6.20243 3.99972 7.99784 6.75825 4.88375 -0.0 0.0 -0.0 7.27618 -15.3932 13.7052 -5.13423 1.88604 67.1549 1.50474 -36.6985 0.499104 -30.8771 -2.03724 3.3315 0.672523 -1.07161 4.05408 -0.0 0.0 -0.0 11.3641 11.1078 -22.8417 -17.8193 22.1356 -56.8182 0.722957 19.7041 -0.125554 -33.2612 2.26465 -3.53588 0.889446 4.51095 -4.08401 0.0 0.0 0.0 -2.51518 0.336129 6.89537 -43.0947 -0.675297 6.42599 37.642 -6.25235 -4.74235 35.786 -0.0 -0.0 -0.0 0.0 -0.0 18.9758 1.16985 3.10725 -26.8214 -0.152629 -4.07577 18.8257 -4.43808 2.58713 -5.82704 0.0 0.0 0.0 0.0 0.0 
1239.14433056 745.132 -1719.79097667 7.7258137436 22.7209048407 -9.80200231145 -2.72388 0.240732 0.870343 -2.72348 0.184864 0.883896 -2.72002 -0.0478818 0.901749 -2.72114 0.0951277 0.897995 4.86626 5.31477 5.62918 4.94379 4.19991 6.69345 -0.0 0.0 -0.0 7.3798 -14.095 14.0041 -7.47665 2.51626 68.4999 1.04012 -27.2589 0.252205 -30.8741 -2.03697 3.33124 0.534419 0.990614 3.97941 -0.0 0.0 -0.0 11.098 13.1305 -22.2094 -14.478 23.3399 -56.9488 0.835854 22.4922 -0.166206 -33.3759 2.2758 -3.54547 1.0959 7.74541 -4.11472 0.0 0.0 0.0 5.41367 4.66772 3.64068 -56.2879 -1.81276 8.10393 39.1668 -8.23931 -4.91587 36.0161 -0.0 -0.0 -0.0 0.0 -0.0 13.421 -3.59532 6.81055 -24.507 -0.21498 -3.72608 17.9258 -2.54286 2.47886 -7.41745 0.0 0.0 0.0 0.0 0.0 
1249.04596502 745.132 -1724.91759106 7.60468287434 20.4461136433 -9.47277998488 -2.72388 0.240732 0.870343 -2.72348 0.184864 0.883896 -2.72002 -0.0478818 0.901749 -2.72114 0.0951277 0.897995 4.86626 5.31477 5.62918 4.94379 4.19991 6.69345 -0.0 0.0 -0.0 7.3798 -14.095 14.0041 -7.47665 2.51626 68.4999 1.04012 -27.2589 0.252205 -30.8741 -2.03697 3.33124 0.534419 0.990614 3.97941 -0.0 0.0 -0.0 11.098 13.1305 -22.2094 -14.478 23.3399 -56.9488 0.835854 22.4922 -0.166206 -33.3759 2.2758 -3.54547 1.0959 7.74541 -4.11472 0.0 0.0 0.0 5.41367 4.66772 3.64068 -56.2879 -1.81276 8.10393 39.1668 -8.23931 -4.91587 36.0161 -0.0 -0.0 -0.0 0.0 -0.0 13.421 -3.59532 6.81055 -24.507 -0.21498 -3.72608 17.9258 -2.54286 2.47886 -7.41745 0.0 0.0 0.0 0.0 0.0 
1240.36436375 747.391 -1743.18254582 7.53428622959 22.1052108987 -9.82636707095 -2.448 0.313014 1.07939 -2.44738 0.2437 1.09712 -2.44183 -0.0402091 1.12314 -2.44357 0.137663 1.11539 3.26981 4.86407 6.06381 3.35989 3.25516 7.11172 -0.0 0.0 -0.0 7.17551 -13.6394 13.5888 -8.91231 2.17188 69.1739 0.913161 -24.3394 0.196931 -30.7956 -2.02962 3.32435 0.501321 1.52122 3.97654 -0.0 0.0 -0.0 11.2411 15.9934 -22.4327 -12.0923 23.5132 -55.6674 0.873004 23.3863 -0.180685 -33.305 2.26891 -3.53955 1.13089 8.80266 -3.90038 0.0 0.0 0.0 8.96413 6.34811 2.43024 -60.7202 -2.27826 8.60431 39.0723 -8.83355 -4.91977 36.0804 -0.0 -0.0 -0.0 0.0 -0.0 12.4818 -6.59661 7.34007 -23.7032 -0.233321 -3.60409 17.1816 -2.07488 2.38552 -8.29563 0.0 0.0 0.0 0.0 0.0 
